<?xml version="1.0" encoding="utf-8"?>
<!-- Generator: Adobe Illustrator 19.0.0, SVG Export Plug-In . SVG Version: 6.00 Build 0)  -->
<svg version="1.1" id="Layer_1" xmlns="http://www.w3.org/2000/svg" xmlns:xlink="http://www.w3.org/1999/xlink" x="0px" y="0px"
	 viewBox="0 0 96 96" style="enable-background:new 0 0 96 96;" xml:space="preserve">
<style type="text/css">
	.st0{fill:#333333;}
</style>
<g id="XMLID_1_">
	<circle id="XMLID_3_" class="st0" cx="47.8" cy="48.2" r="4.9"/>
	<path id="XMLID_7_" class="st0" d="M53.9,36.2H41.6c-1.8,0-3.4,0.6-4.4,1.6c-1,1-1.6,2.6-1.6,4.4v12.3c0,1.8,0.6,3.4,1.7,4.5
		c1.1,1,2.6,1.6,4.4,1.6h12.2c1.8,0,3.4-0.6,4.4-1.6c1.1-1,1.7-2.6,1.7-4.4V42.2c0-1.8-0.6-3.2-1.6-4.4
		C57.3,36.7,55.8,36.2,53.9,36.2z M47.8,55.8c-4.2,0-7.6-3.5-7.6-7.6c0-4.2,3.5-7.6,7.6-7.6c4.1,0,7.7,3.4,7.7,7.6
		S52,55.8,47.8,55.8z M55.7,42.1c-1,0-1.8-0.8-1.8-1.8c0-1,0.8-1.8,1.8-1.8c1,0,1.8,0.8,1.8,1.8C57.5,41.3,56.7,42.1,55.7,42.1z"/>
	<path id="XMLID_10_" class="st0" d="M48,20.5c-15.2,0-27.5,12.3-27.5,27.5S32.8,75.5,48,75.5c15.2,0,27.5-12.3,27.5-27.5
		C75.6,32.8,63.2,20.5,48,20.5z M62.6,54.5c0,2.6-0.9,4.8-2.5,6.4c-1.6,1.6-3.8,2.3-6.3,2.3H41.7c-2.5,0-4.7-0.8-6.3-2.3
		c-1.7-1.6-2.5-3.8-2.5-6.4V42.2c0-5.1,3.5-8.7,8.7-8.7H54c2.6,0,4.7,0.9,6.3,2.5c1.6,1.6,2.3,3.7,2.3,6.3V54.5z"/>
</g>
</svg>
